<mxfile modified="2022-05-20T02:21:20.424Z" host="app.diagrams.net" agent="5.0 (Windows NT 10.0; Win64; x64) AppleWebKit/537.36 (KHTML, like Gecko) Chrome/101.0.4951.54 Safari/537.36" etag="gBHIWcnaJ5cqtLfffJSS" compressed="false" version="18.0.8" type="google">
  <diagram name="Integration/System Logical Module/API/Resource URLs/Invitations" id="9jF5jqrNLM8KJLT7pcaW">
    <mxGraphModel grid="1" page="1" gridSize="10" guides="1" tooltips="1" connect="1" arrows="1" fold="1" pageScale="1" pageWidth="850" pageHeight="1100" math="0" shadow="0">
      <root>
        <mxCell id="j71EA3Cn3b_lNNyHj04L-0" />
        <mxCell id="j71EA3Cn3b_lNNyHj04L-42" value="Diagram" parent="j71EA3Cn3b_lNNyHj04L-0" />
        <mxCell id="j71EA3Cn3b_lNNyHj04L-2" value="List Invitations&amp;nbsp;(within current Tenancy)" style="text;html=1;strokeColor=none;fillColor=none;align=left;verticalAlign=middle;whiteSpace=wrap;rounded=0;dashed=1;fontFamily=Helvetica;fontSize=12;" vertex="1" parent="j71EA3Cn3b_lNNyHj04L-42">
          <mxGeometry x="400" y="300" width="320" height="20" as="geometry" />
        </mxCell>
        <mxCell id="j71EA3Cn3b_lNNyHj04L-3" value="Invitations" style="text;html=1;strokeColor=none;fillColor=none;align=left;verticalAlign=middle;whiteSpace=wrap;rounded=0;dashed=1;fontSize=12;fontFamily=Courier New;" vertex="1" parent="j71EA3Cn3b_lNNyHj04L-42">
          <mxGeometry x="160" y="300" width="200" height="20" as="geometry" />
        </mxCell>
        <mxCell id="j71EA3Cn3b_lNNyHj04L-4" value="Invitations/{uuid}" style="text;html=1;strokeColor=none;fillColor=none;align=left;verticalAlign=middle;whiteSpace=wrap;rounded=0;dashed=1;fontSize=12;fontFamily=Courier New;" vertex="1" parent="j71EA3Cn3b_lNNyHj04L-42">
          <mxGeometry x="160" y="400" width="200" height="20" as="geometry" />
        </mxCell>
        <mxCell id="j71EA3Cn3b_lNNyHj04L-5" value="View&amp;nbsp;&lt;span style=&quot;font-size: 12px&quot;&gt;Invitation&lt;/span&gt;&amp;nbsp;{uuid}. Using common non-standard notation." style="text;html=1;strokeColor=none;fillColor=none;align=left;verticalAlign=middle;whiteSpace=wrap;rounded=0;dashed=1;fontFamily=Helvetica;fontSize=11;" vertex="1" parent="j71EA3Cn3b_lNNyHj04L-42">
          <mxGeometry x="400" y="400" width="320" height="20" as="geometry" />
        </mxCell>
        <mxCell id="j71EA3Cn3b_lNNyHj04L-6" value="GET" style="text;html=1;strokeColor=none;fillColor=none;align=left;verticalAlign=middle;whiteSpace=wrap;rounded=0;dashed=1;fontSize=12;fontFamily=Courier New;" vertex="1" parent="j71EA3Cn3b_lNNyHj04L-42">
          <mxGeometry x="120" y="300" width="40" height="20" as="geometry" />
        </mxCell>
        <mxCell id="j71EA3Cn3b_lNNyHj04L-7" value="GET" style="text;html=1;strokeColor=none;fillColor=none;align=left;verticalAlign=middle;whiteSpace=wrap;rounded=0;dashed=1;fontSize=12;fontFamily=Courier New;" vertex="1" parent="j71EA3Cn3b_lNNyHj04L-42">
          <mxGeometry x="120" y="400" width="40" height="20" as="geometry" />
        </mxCell>
        <mxCell id="j71EA3Cn3b_lNNyHj04L-8" value="POST" style="text;html=1;strokeColor=none;fillColor=none;align=left;verticalAlign=middle;whiteSpace=wrap;rounded=0;dashed=1;fontSize=12;fontFamily=Courier New;" vertex="1" parent="j71EA3Cn3b_lNNyHj04L-42">
          <mxGeometry x="120" y="440" width="40" height="20" as="geometry" />
        </mxCell>
        <mxCell id="j71EA3Cn3b_lNNyHj04L-9" value="Invitations" style="text;html=1;strokeColor=none;fillColor=none;align=left;verticalAlign=middle;whiteSpace=wrap;rounded=0;dashed=1;fontSize=12;fontFamily=Courier New;" vertex="1" parent="j71EA3Cn3b_lNNyHj04L-42">
          <mxGeometry x="160" y="440" width="200" height="20" as="geometry" />
        </mxCell>
        <mxCell id="j71EA3Cn3b_lNNyHj04L-10" value="POST" style="text;html=1;strokeColor=none;fillColor=none;align=left;verticalAlign=middle;whiteSpace=wrap;rounded=0;dashed=1;fontSize=12;fontFamily=Courier New;" vertex="1" parent="j71EA3Cn3b_lNNyHj04L-42">
          <mxGeometry x="120" y="460" width="40" height="20" as="geometry" />
        </mxCell>
        <mxCell id="j71EA3Cn3b_lNNyHj04L-11" value="Invitations(&#39;{uuid}&#39;)" style="text;html=1;strokeColor=none;fillColor=none;align=left;verticalAlign=middle;whiteSpace=wrap;rounded=0;dashed=1;fontSize=12;fontFamily=Courier New;" vertex="1" parent="j71EA3Cn3b_lNNyHj04L-42">
          <mxGeometry x="160" y="460" width="200" height="20" as="geometry" />
        </mxCell>
        <mxCell id="j71EA3Cn3b_lNNyHj04L-12" value="Create&amp;nbsp;&lt;span style=&quot;font-size: 12px&quot;&gt;Invitation&lt;/span&gt;, server side generated Id. &lt;b style=&quot;font-size: 10px&quot;&gt;&lt;font color=&quot;#cc0000&quot; style=&quot;font-size: 10px&quot;&gt;&lt;u style=&quot;font-size: 10px&quot;&gt;NOT&lt;/u&gt;&lt;/font&gt; &lt;/b&gt;recommended." style="text;html=1;strokeColor=none;fillColor=none;align=left;verticalAlign=middle;whiteSpace=wrap;rounded=0;dashed=1;fontFamily=Helvetica;fontSize=10;" vertex="1" parent="j71EA3Cn3b_lNNyHj04L-42">
          <mxGeometry x="400" y="440" width="320" height="20" as="geometry" />
        </mxCell>
        <mxCell id="j71EA3Cn3b_lNNyHj04L-13" value="Create&amp;nbsp;&lt;span style=&quot;font-size: 12px&quot;&gt;Invitation&lt;/span&gt;, client side generated UUID. &lt;font color=&quot;#009900&quot; style=&quot;font-size: 10px&quot;&gt;&lt;b style=&quot;font-size: 10px&quot;&gt;RECOMMENDED&lt;/b&gt;&lt;/font&gt;." style="text;html=1;strokeColor=none;fillColor=none;align=left;verticalAlign=middle;whiteSpace=wrap;rounded=0;dashed=1;fontFamily=Helvetica;fontSize=10;" vertex="1" parent="j71EA3Cn3b_lNNyHj04L-42">
          <mxGeometry x="400" y="460" width="320" height="20" as="geometry" />
        </mxCell>
        <mxCell id="j71EA3Cn3b_lNNyHj04L-14" value="PUT" style="text;html=1;strokeColor=none;fillColor=none;align=left;verticalAlign=middle;whiteSpace=wrap;rounded=0;dashed=1;fontSize=12;fontFamily=Courier New;" vertex="1" parent="j71EA3Cn3b_lNNyHj04L-42">
          <mxGeometry x="120" y="420" width="40" height="20" as="geometry" />
        </mxCell>
        <mxCell id="j71EA3Cn3b_lNNyHj04L-15" value="Invitations(&#39;{uuid}&#39;)" style="text;html=1;strokeColor=none;fillColor=none;align=left;verticalAlign=middle;whiteSpace=wrap;rounded=0;dashed=1;fontSize=12;fontFamily=Courier New;" vertex="1" parent="j71EA3Cn3b_lNNyHj04L-42">
          <mxGeometry x="160" y="420" width="200" height="20" as="geometry" />
        </mxCell>
        <mxCell id="j71EA3Cn3b_lNNyHj04L-16" value="Edit Invitation&amp;nbsp;{uuid}. Using ODATA Standard notation." style="text;html=1;strokeColor=none;fillColor=none;align=left;verticalAlign=middle;whiteSpace=wrap;rounded=0;dashed=1;fontFamily=Helvetica;fontSize=12;" vertex="1" parent="j71EA3Cn3b_lNNyHj04L-42">
          <mxGeometry x="400" y="420" width="320" height="20" as="geometry" />
        </mxCell>
        <mxCell id="j71EA3Cn3b_lNNyHj04L-17" value="DELETE" style="text;html=1;strokeColor=none;fillColor=none;align=left;verticalAlign=middle;whiteSpace=wrap;rounded=0;dashed=1;fontSize=10;fontFamily=Courier New;" vertex="1" parent="j71EA3Cn3b_lNNyHj04L-42">
          <mxGeometry x="120" y="480" width="40" height="20" as="geometry" />
        </mxCell>
        <mxCell id="j71EA3Cn3b_lNNyHj04L-18" value="Invitations(&#39;{uuid}&#39;)" style="text;html=1;strokeColor=none;fillColor=none;align=left;verticalAlign=middle;whiteSpace=wrap;rounded=0;dashed=1;fontSize=12;fontFamily=Courier New;" vertex="1" parent="j71EA3Cn3b_lNNyHj04L-42">
          <mxGeometry x="160" y="480" width="200" height="20" as="geometry" />
        </mxCell>
        <mxCell id="j71EA3Cn3b_lNNyHj04L-19" value="Delete Invitation {uuid}" style="text;html=1;strokeColor=none;fillColor=none;align=left;verticalAlign=middle;whiteSpace=wrap;rounded=0;dashed=1;fontFamily=Helvetica;fontSize=12;" vertex="1" parent="j71EA3Cn3b_lNNyHj04L-42">
          <mxGeometry x="400" y="480" width="320" height="20" as="geometry" />
        </mxCell>
        <mxCell id="j71EA3Cn3b_lNNyHj04L-20" value="&lt;font style=&quot;font-size: 12px&quot;&gt;List Invitations, page 3, using ODATA filter arguments.&lt;/font&gt;" style="text;html=1;strokeColor=none;fillColor=none;align=left;verticalAlign=middle;whiteSpace=wrap;rounded=0;dashed=1;fontFamily=Helvetica;fontSize=11;" vertex="1" parent="j71EA3Cn3b_lNNyHj04L-42">
          <mxGeometry x="400" y="340" width="320" height="20" as="geometry" />
        </mxCell>
        <mxCell id="j71EA3Cn3b_lNNyHj04L-21" value="&lt;font style=&quot;font-size: 11px&quot;&gt;&lt;span style=&quot;font-size: 12px&quot;&gt;Invitations&lt;/span&gt;?$top=80&amp;amp;$skip=60&lt;/font&gt;" style="text;html=1;strokeColor=none;fillColor=none;align=left;verticalAlign=middle;whiteSpace=wrap;rounded=0;dashed=1;fontSize=12;fontFamily=Courier New;" vertex="1" parent="j71EA3Cn3b_lNNyHj04L-42">
          <mxGeometry x="160" y="340" width="230" height="20" as="geometry" />
        </mxCell>
        <mxCell id="j71EA3Cn3b_lNNyHj04L-22" value="GET" style="text;html=1;strokeColor=none;fillColor=none;align=left;verticalAlign=middle;whiteSpace=wrap;rounded=0;dashed=1;fontSize=12;fontFamily=Courier New;" vertex="1" parent="j71EA3Cn3b_lNNyHj04L-42">
          <mxGeometry x="120" y="340" width="40" height="20" as="geometry" />
        </mxCell>
        <mxCell id="j71EA3Cn3b_lNNyHj04L-23" value="Count&amp;nbsp;&lt;span style=&quot;font-size: 12px&quot;&gt;Invitations&lt;/span&gt;, using ODATA standard filter arguments." style="text;html=1;strokeColor=none;fillColor=none;align=left;verticalAlign=middle;whiteSpace=wrap;rounded=0;dashed=1;fontFamily=Helvetica;fontSize=11;" vertex="1" parent="j71EA3Cn3b_lNNyHj04L-42">
          <mxGeometry x="400" y="320" width="320" height="20" as="geometry" />
        </mxCell>
        <mxCell id="j71EA3Cn3b_lNNyHj04L-24" value="Invitations?$count=true" style="text;html=1;strokeColor=none;fillColor=none;align=left;verticalAlign=middle;whiteSpace=wrap;rounded=0;dashed=1;fontSize=12;fontFamily=Courier New;" vertex="1" parent="j71EA3Cn3b_lNNyHj04L-42">
          <mxGeometry x="160" y="320" width="200" height="20" as="geometry" />
        </mxCell>
        <mxCell id="j71EA3Cn3b_lNNyHj04L-25" value="GET" style="text;html=1;strokeColor=none;fillColor=none;align=left;verticalAlign=middle;whiteSpace=wrap;rounded=0;dashed=1;fontSize=12;fontFamily=Courier New;" vertex="1" parent="j71EA3Cn3b_lNNyHj04L-42">
          <mxGeometry x="120" y="320" width="40" height="20" as="geometry" />
        </mxCell>
        <mxCell id="j71EA3Cn3b_lNNyHj04L-26" value="List Invitations&amp;nbsp;that meet a custom search criteria." style="text;html=1;strokeColor=none;fillColor=none;align=left;verticalAlign=middle;whiteSpace=wrap;rounded=0;dashed=1;fontFamily=Helvetica;fontSize=12;" vertex="1" parent="j71EA3Cn3b_lNNyHj04L-42">
          <mxGeometry x="400" y="360" width="320" height="20" as="geometry" />
        </mxCell>
        <mxCell id="j71EA3Cn3b_lNNyHj04L-27" value="Invitations?$search=xyz" style="text;html=1;strokeColor=none;fillColor=none;align=left;verticalAlign=middle;whiteSpace=wrap;rounded=0;dashed=1;fontSize=12;fontFamily=Courier New;" vertex="1" parent="j71EA3Cn3b_lNNyHj04L-42">
          <mxGeometry x="160" y="360" width="200" height="20" as="geometry" />
        </mxCell>
        <mxCell id="j71EA3Cn3b_lNNyHj04L-28" value="GET" style="text;html=1;strokeColor=none;fillColor=none;align=left;verticalAlign=middle;whiteSpace=wrap;rounded=0;dashed=1;fontSize=12;fontFamily=Courier New;" vertex="1" parent="j71EA3Cn3b_lNNyHj04L-42">
          <mxGeometry x="120" y="360" width="40" height="20" as="geometry" />
        </mxCell>
        <mxCell id="j71EA3Cn3b_lNNyHj04L-29" value="Description" style="text;html=1;strokeColor=none;fillColor=#f5f5f5;align=left;verticalAlign=middle;whiteSpace=wrap;rounded=0;fontSize=12;fontFamily=Helvetica;fontColor=#333333;fontStyle=0" vertex="1" parent="j71EA3Cn3b_lNNyHj04L-42">
          <mxGeometry x="400" y="200" width="320" height="20" as="geometry" />
        </mxCell>
        <mxCell id="j71EA3Cn3b_lNNyHj04L-30" value="URL" style="text;html=1;strokeColor=none;fillColor=#f5f5f5;align=left;verticalAlign=middle;whiteSpace=wrap;rounded=0;fontSize=12;fontFamily=Helvetica;fontColor=#333333;fontStyle=0" vertex="1" parent="j71EA3Cn3b_lNNyHj04L-42">
          <mxGeometry x="160" y="200" width="230" height="20" as="geometry" />
        </mxCell>
        <mxCell id="j71EA3Cn3b_lNNyHj04L-31" value="&lt;font style=&quot;font-size: 10px;&quot;&gt;VERB&lt;/font&gt;" style="text;html=1;strokeColor=none;fillColor=#f5f5f5;align=left;verticalAlign=middle;whiteSpace=wrap;rounded=0;fontSize=10;fontFamily=Helvetica;fontColor=#333333;fontStyle=0" vertex="1" parent="j71EA3Cn3b_lNNyHj04L-42">
          <mxGeometry x="120" y="200" width="30" height="20" as="geometry" />
        </mxCell>
        <mxCell id="j71EA3Cn3b_lNNyHj04L-32" value="&lt;font style=&quot;font-size: 9px&quot;&gt;&lt;span style=&quot;font-size: 10px&quot;&gt;SummaryItems&lt;/span&gt;?$search=Invitation,abc:xyz&lt;/font&gt;" style="text;html=1;strokeColor=none;fillColor=none;align=left;verticalAlign=middle;whiteSpace=wrap;rounded=0;dashed=1;fontSize=9;fontFamily=Courier New;" vertex="1" parent="j71EA3Cn3b_lNNyHj04L-42">
          <mxGeometry x="160" y="260" width="250" height="20" as="geometry" />
        </mxCell>
        <mxCell id="j71EA3Cn3b_lNNyHj04L-33" value="GET" style="text;html=1;strokeColor=none;fillColor=none;align=left;verticalAlign=middle;whiteSpace=wrap;rounded=0;dashed=1;fontSize=12;fontFamily=Courier New;" vertex="1" parent="j71EA3Cn3b_lNNyHj04L-42">
          <mxGeometry x="120" y="260" width="40" height="20" as="geometry" />
        </mxCell>
        <mxCell id="j71EA3Cn3b_lNNyHj04L-34" value="&lt;font style=&quot;font-size: 10px&quot;&gt;SummaryItems?$search=Invitation:xyz&lt;/font&gt;" style="text;html=1;strokeColor=none;fillColor=none;align=left;verticalAlign=middle;whiteSpace=wrap;rounded=0;dashed=1;fontSize=10;fontFamily=Courier New;" vertex="1" parent="j71EA3Cn3b_lNNyHj04L-42">
          <mxGeometry x="160" y="240" width="240" height="20" as="geometry" />
        </mxCell>
        <mxCell id="j71EA3Cn3b_lNNyHj04L-35" value="GET" style="text;html=1;strokeColor=none;fillColor=none;align=left;verticalAlign=middle;whiteSpace=wrap;rounded=0;dashed=1;fontSize=12;fontFamily=Courier New;" vertex="1" parent="j71EA3Cn3b_lNNyHj04L-42">
          <mxGeometry x="120" y="240" width="40" height="20" as="geometry" />
        </mxCell>
        <mxCell id="j71EA3Cn3b_lNNyHj04L-36" value="List SummaryItems of type Invitation&amp;nbsp;custom matching xyz" style="text;html=1;strokeColor=none;fillColor=none;align=left;verticalAlign=middle;whiteSpace=wrap;rounded=0;dashed=1;fontFamily=Helvetica;fontSize=12;" vertex="1" parent="j71EA3Cn3b_lNNyHj04L-42">
          <mxGeometry x="400" y="240" width="320" height="20" as="geometry" />
        </mxCell>
        <mxCell id="j71EA3Cn3b_lNNyHj04L-37" value="&lt;font style=&quot;font-size: 11px&quot;&gt;List SummaryItems of type&amp;nbsp;Invitation&amp;nbsp;&amp;amp; abc custom matching xyz&lt;/font&gt;" style="text;html=1;strokeColor=none;fillColor=none;align=left;verticalAlign=middle;whiteSpace=wrap;rounded=0;dashed=1;fontFamily=Helvetica;fontSize=11;" vertex="1" parent="j71EA3Cn3b_lNNyHj04L-42">
          <mxGeometry x="400" y="260" width="320" height="20" as="geometry" />
        </mxCell>
        <mxCell id="j71EA3Cn3b_lNNyHj04L-48" value="POST" style="text;html=1;strokeColor=none;fillColor=none;align=left;verticalAlign=middle;whiteSpace=wrap;rounded=0;dashed=1;fontSize=12;fontFamily=Courier New;" vertex="1" parent="j71EA3Cn3b_lNNyHj04L-42">
          <mxGeometry x="120" y="540" width="40" height="20" as="geometry" />
        </mxCell>
        <mxCell id="j71EA3Cn3b_lNNyHj04L-49" value="InvitationStates()" style="text;html=1;strokeColor=none;fillColor=none;align=left;verticalAlign=middle;whiteSpace=wrap;rounded=0;dashed=1;fontSize=12;fontFamily=Courier New;" vertex="1" parent="j71EA3Cn3b_lNNyHj04L-42">
          <mxGeometry x="160" y="540" width="200" height="20" as="geometry" />
        </mxCell>
        <mxCell id="j71EA3Cn3b_lNNyHj04L-50" value="Change State of an Invitation (Accepted, Cancelled). No ID req." style="text;html=1;strokeColor=none;fillColor=none;align=left;verticalAlign=middle;whiteSpace=wrap;rounded=0;dashed=1;fontFamily=Helvetica;fontSize=11;" vertex="1" parent="j71EA3Cn3b_lNNyHj04L-42">
          <mxGeometry x="400" y="540" width="320" height="20" as="geometry" />
        </mxCell>
        <mxCell id="j71EA3Cn3b_lNNyHj04L-43" value="Context/Legend" parent="j71EA3Cn3b_lNNyHj04L-0" />
        <mxCell id="j71EA3Cn3b_lNNyHj04L-45" value="Title/Diagram" parent="j71EA3Cn3b_lNNyHj04L-0" />
        <mxCell id="j71EA3Cn3b_lNNyHj04L-38" value="&lt;font style=&quot;font-size: 12px ; font-weight: normal&quot;&gt;&lt;i&gt;Diagram: Base&amp;nbsp;&lt;/i&gt;&lt;i&gt;System&amp;nbsp;&lt;/i&gt;&lt;i&gt;Logical Module -&amp;nbsp;&lt;/i&gt;&lt;i&gt;Interoperability&amp;nbsp;&lt;/i&gt;&lt;i&gt;- APIs - Invitations&lt;/i&gt;&lt;/font&gt;" style="text;strokeColor=none;fillColor=none;html=1;fontSize=12;fontStyle=1;verticalAlign=middle;align=left;shadow=0;glass=0;comic=0;opacity=30;fontColor=#808080;" vertex="1" parent="j71EA3Cn3b_lNNyHj04L-45">
          <mxGeometry x="120" y="580" width="560" height="20" as="geometry" />
        </mxCell>
        <mxCell id="j71EA3Cn3b_lNNyHj04L-44" value="Title/Page" visible="0" parent="j71EA3Cn3b_lNNyHj04L-0" />
        <mxCell id="j71EA3Cn3b_lNNyHj04L-39" value="" style="group;fontSize=12;" vertex="1" connectable="0" parent="j71EA3Cn3b_lNNyHj04L-44">
          <mxGeometry x="120" y="120" width="600" height="45" as="geometry" />
        </mxCell>
        <mxCell id="j71EA3Cn3b_lNNyHj04L-40" value="&lt;font style=&quot;font-size: 12px&quot;&gt;Base Logical Module - Interoperability&amp;nbsp;- APIs - Invitations&lt;/font&gt;" style="text;strokeColor=none;fillColor=none;html=1;fontSize=12;fontStyle=1;verticalAlign=middle;align=left;shadow=0;glass=0;comic=0;opacity=30;fontColor=#808080;" vertex="1" parent="j71EA3Cn3b_lNNyHj04L-39">
          <mxGeometry y="20" width="600" height="20" as="geometry" />
        </mxCell>
        <mxCell id="j71EA3Cn3b_lNNyHj04L-41" value="" style="line;strokeWidth=2;html=1;shadow=0;glass=0;comic=0;fillColor=none;fontSize=10;fontColor=#CCCCCC;labelBackgroundColor=none;strokeColor=#CCCCCC;" vertex="1" parent="j71EA3Cn3b_lNNyHj04L-39">
          <mxGeometry y="35" width="600" height="10" as="geometry" />
        </mxCell>
        <mxCell id="j71EA3Cn3b_lNNyHj04L-46" value="About" parent="j71EA3Cn3b_lNNyHj04L-0" />
      </root>
    </mxGraphModel>
  </diagram>
</mxfile>
